HIERARCHY
ROOT root
{
	OFFSET 0.000000 0.000000 0.000000
	CHANNELS 6 Xposition Yposition Zposition Zrotation Yrotation Xrotation
	JOINT lhip
	{
		OFFSET 0.058581 -0.082280 -0.017664
		CHANNELS 3 Zrotation Yrotation Xrotation
		JOINT lknee
		{
			OFFSET 0.043451 -0.386469 0.008037
			CHANNELS 3 Zrotation Yrotation Xrotation
			JOINT lankle
			{
				OFFSET -0.014790 -0.426874 -0.037428
				CHANNELS 3 Zrotation Yrotation Xrotation
				JOINT ltoe
				{
					OFFSET 0.041054 -0.060286 0.122042
					CHANNELS 3 Zrotation Yrotation Xrotation
					End Site
					{
						OFFSET 0.000000 0.000000 0.000000
					}
				}
			}
		}
	}
	JOINT rhip
	{
		OFFSET -0.060310 -0.090513 -0.013543
		CHANNELS 3 Zrotation Yrotation Xrotation
		JOINT rknee
		{
			OFFSET -0.043257 -0.383688 -0.004843
			CHANNELS 3 Zrotation Yrotation Xrotation
			JOINT rankle
			{
				OFFSET 0.019056 -0.420046 -0.034562
				CHANNELS 3 Zrotation Yrotation Xrotation
				JOINT rtoe
				{
					OFFSET -0.034840 -0.062106 0.130323
					CHANNELS 3 Zrotation Yrotation Xrotation
					End Site
					{
						OFFSET 0.000000 0.000000 0.000000
					}
				}
			}
		}
	}
	JOINT lowerback
	{
		OFFSET 0.004439 0.124404 -0.038385
		CHANNELS 3 Zrotation Yrotation Xrotation
		JOINT upperback
		{
			OFFSET 0.004488 0.137956 0.026820
			CHANNELS 3 Zrotation Yrotation Xrotation
			JOINT chest
			{
				OFFSET -0.002265 0.056032 0.002855
				CHANNELS 3 Zrotation Yrotation Xrotation
				JOINT lowerneck
				{
					OFFSET -0.013390 0.211636 -0.033468
					CHANNELS 3 Zrotation Yrotation Xrotation
					JOINT upperneck
					{
						OFFSET 0.010113 0.088937 0.050410
						CHANNELS 3 Zrotation Yrotation Xrotation
						End Site
						{
							OFFSET 0.000000 0.000000 0.000000
						}
					}
				}
				JOINT lclavicle
				{
					OFFSET 0.071702 0.114000 -0.018898
					CHANNELS 3 Zrotation Yrotation Xrotation
					JOINT lshoulder
					{
						OFFSET 0.122921 0.045205 -0.019046
						CHANNELS 3 Zrotation Yrotation Xrotation
						JOINT lelbow
						{
							OFFSET 0.255332 -0.015649 -0.022946
							CHANNELS 3 Zrotation Yrotation Xrotation
							JOINT lwrist
							{
								OFFSET 0.265709 0.012698 -0.007375
								CHANNELS 3 Zrotation Yrotation Xrotation
								End Site
								{
									OFFSET 0.000000 0.000000 0.000000
								}
							}
						}
					}
				}
				JOINT rclavicle
				{
					OFFSET -0.082954 0.112472 -0.023707
					CHANNELS 3 Zrotation Yrotation Xrotation
					JOINT rshoulder
					{
						OFFSET -0.113228 0.046853 -0.008472
						CHANNELS 3 Zrotation Yrotation Xrotation
						JOINT relbow
						{
							OFFSET -0.260127 -0.014369 -0.031269
							CHANNELS 3 Zrotation Yrotation Xrotation
							JOINT rwrist
							{
								OFFSET -0.269108 0.006794 -0.006027
								CHANNELS 3 Zrotation Yrotation Xrotation
								End Site
								{
									OFFSET 0.000000 0.000000 0.000000
								}
							}
						}
					}
				}
			}
		}
	}
}
MOTION
Frames: 8
Frame Time: 0.033333
0.356990 0.195499 0.905723 -129.778196 5.222452 99.621066 14.896977 18.563447 -39.361465 -3.906892 26.165655 45.952859 4.765730 6.290263 -19.838841 0.000000 -0.000000 0.000000 -18.193522 -11.312369 -25.345537 2.112077 -8.010858 28.944931 13.957438 4.802413 -12.077488 0.000000 -0.000000 0.000000 -0.424568 -3.510766 41.051665 -2.472466 -8.213944 -1.925739 1.350091 -4.969836 -2.511690 -12.107775 11.019019 -17.801640 -2.427434 31.459894 -10.309004 -36.010274 -19.843040 3.203826 -48.057178 -13.505975 11.053684 9.264472 -54.192048 -11.337476 21.967489 -3.826871 -22.324922 25.925893 18.528650 4.894933 56.921709 12.155240 16.267957 -30.636717 53.394837 -37.274757 -3.732054 7.325918 -8.081914 
0.349993 0.198687 0.904661 -126.229269 5.279044 99.646892 14.256785 19.450105 -40.229121 -2.623604 30.034788 47.392599 5.000118 7.947610 -20.136645 0.000000 -0.000000 0.000000 -18.976052 -12.454540 -22.353774 2.731400 -9.609656 28.274230 13.757700 4.263732 -13.043081 0.000000 -0.000000 0.000000 0.236423 -2.920409 38.523630 -2.622053 -7.874562 -1.737264 0.853127 -4.593821 -2.464851 -11.783781 10.606758 -18.015464 -2.232729 30.450427 -9.420493 -35.682334 -18.398766 3.781532 -46.711110 -11.045842 11.350457 7.609128 -60.576932 -9.014124 22.076883 -2.088525 -24.272202 26.230206 17.081936 5.481066 57.096910 10.637631 16.754415 -31.702304 57.538578 -37.928687 -5.858453 7.334937 -8.780323 
0.337778 0.204690 0.903784 -121.274831 5.930604 98.744470 12.978564 20.639581 -40.127883 -0.006469 34.321545 49.284683 6.342684 9.950906 -20.781167 0.000000 -0.000000 0.000000 -18.752863 -14.227331 -17.590450 2.443079 -10.508740 27.766830 13.759860 3.411295 -13.815251 0.000000 -0.000000 0.000000 0.822547 -1.533638 36.437935 -2.070887 -7.456535 -1.900594 1.158196 -3.978132 -2.368592 -11.354276 9.182578 -17.077704 -2.107739 29.984530 -8.217273 -35.015548 -16.688421 3.938929 -45.719423 -8.879673 11.708838 5.086350 -69.267012 -5.783053 25.385520 -0.092509 -24.801988 25.806095 15.500974 5.587194 57.608684 8.061881 16.966846 -37.263786 63.727197 -42.716322 -7.918807 7.942518 -9.387880 
0.321208 0.206952 0.902450 -115.447220 6.411780 98.494362 10.439015 20.099742 -39.828277 1.245370 37.482883 48.406296 9.174875 12.558222 -23.096782 0.000000 -0.000000 0.000000 -19.014213 -15.311747 -13.927610 1.739300 -11.578803 29.315620 14.732451 2.227550 -13.499983 0.000000 -0.000000 0.000000 1.042449 0.002671 33.069706 -1.336545 -6.806278 -2.988655 1.263743 -3.189450 -1.221208 -9.946754 7.667673 -15.598114 -1.399732 27.737774 -4.877713 -31.924169 -14.599734 2.649427 -46.162943 -8.542717 13.052141 0.545000 -79.153212 1.566371 26.944389 1.329987 -24.567902 24.085450 13.090420 4.189673 59.882865 6.283256 18.273574 -51.606391 69.639812 -55.203342 -6.614266 8.250076 -10.612857 
0.298495 0.205842 0.903050 -108.686496 7.022711 97.526076 7.462574 17.695612 -37.132303 0.489622 35.576831 43.265710 13.110391 14.906115 -27.747449 0.000000 -0.000000 0.000000 -19.722140 -15.525599 -10.279587 0.033926 -12.747478 33.787251 17.950740 1.711149 -9.734597 0.000000 -0.000000 0.000000 1.439223 1.332433 30.059733 -0.627525 -6.004663 -4.348994 1.349078 -2.339767 0.249213 -8.251257 7.212731 -13.269007 -0.625266 24.381915 0.435687 -28.052804 -13.813439 0.521413 -46.679464 -11.237561 14.282261 -17.917818 -87.523251 22.615094 26.896405 0.340800 -24.689452 22.272807 11.433625 1.838571 61.799397 6.354468 19.713090 -75.703561 72.186596 -77.486939 -6.610587 9.394864 -11.832526 
0.273736 0.198501 0.907487 -100.499922 7.660083 96.572882 6.524211 12.790485 -35.138945 -1.265187 30.497819 42.209927 13.998733 15.400100 -29.409716 0.000000 -0.000000 0.000000 -19.447381 -13.366521 -8.473122 -2.686786 -12.309736 40.826283 20.360002 -1.490469 -2.294313 0.000000 -0.000000 0.000000 1.240752 1.853496 27.590290 1.107835 -5.233076 -5.924632 1.781746 -1.734974 1.256847 -5.479911 4.811302 -10.030713 0.800403 21.422121 7.146520 -24.013501 -14.363675 -2.608520 -47.726920 -16.803505 16.474541 159.366339 -86.421642 -151.655453 26.313668 -0.348017 -25.286542 20.181160 11.616486 -1.890688 61.890069 8.727305 22.124950 -96.119565 68.918317 -95.228342 -5.214676 10.334214 -13.212641 
0.252175 0.190523 0.914924 -91.396730 7.147759 95.931429 5.283681 6.241669 -32.810018 -2.650460 26.987018 40.584432 14.801459 15.118909 -28.682138 0.000000 -0.000000 0.000000 -17.712782 -8.800929 -9.945279 -5.108505 -9.196688 50.588882 18.258695 -6.056830 5.160927 0.000000 -0.000000 0.000000 0.212550 2.900533 26.068356 2.790604 -4.775766 -7.713414 1.766024 -1.720205 2.159825 -3.344158 3.616055 -6.803798 1.460332 16.766247 12.213607 -19.134360 -16.827899 -5.596019 -47.363836 -25.996549 17.799950 133.142923 -82.572458 -124.109952 26.103526 -1.656426 -23.792404 18.700196 13.030758 -5.724164 59.916438 15.261422 24.137017 -102.145564 63.131123 -98.841356 -5.568952 11.045068 -13.556759 
0.229238 0.181648 0.919991 -82.191906 6.585046 94.727535 2.367673 3.145808 -29.754874 -4.141092 21.014161 39.526201 15.663823 15.330260 -29.089395 0.000000 -0.000000 0.000000 -15.854667 -5.500170 -12.731678 -3.198462 -6.367817 63.101034 16.599831 -6.316793 4.161502 0.000000 -0.000000 0.000000 -0.431058 2.630681 24.805353 3.903924 -4.340284 -8.512341 1.532795 -0.941313 2.982234 -1.974686 2.741785 -4.147879 1.077555 10.677227 17.478351 -13.789125 -20.494779 -10.263940 -45.859984 -34.504058 18.709647 104.366809 -78.259754 -96.712381 27.045357 -2.610775 -22.057554 16.580329 16.894298 -9.424341 54.418960 23.019783 23.475080 -101.344947 57.714906 -98.203835 -6.466454 10.857020 -14.532108 
